<svg xmlns="http://www.w3.org/2000/svg" viewBox="0 0 800 450">
  <defs>
    <linearGradient id="bg" x1="0" y1="0" x2="1" y2="1">
      <stop offset="0" stop-color="#0f172a"/>
      <stop offset="1" stop-color="#312e81"/>
    </linearGradient>
    <linearGradient id="card" x1="0" y1="0" x2="1" y2="1">
      <stop offset="0" stop-color="#1e293b"/>
      <stop offset="1" stop-color="#0f172a"/>
    </linearGradient>
    <linearGradient id="fan" x1="0" y1="0" x2="1" y2="1">
      <stop offset="0" stop-color="#22d3ee"/>
      <stop offset="1" stop-color="#6366f1"/>
    </linearGradient>
  </defs>
  <rect width="800" height="450" fill="url(#bg)"/>
  <circle cx="620" cy="80" r="140" fill="#6366f1" opacity="0.15"/>
  <circle cx="150" cy="380" r="120" fill="#22d3ee" opacity="0.12"/>
  <!-- PCB -->
  <rect x="180" y="130" width="440" height="190" rx="18" fill="url(#card)" stroke="#334155" stroke-width="3"/>
  <!-- GPU chip -->
  <rect x="330" y="160" width="140" height="70" rx="10" fill="#22d3ee" opacity="0.9"/>
  <rect x="342" y="172" width="116" height="46" rx="6" fill="#0e7490"/>
  <!-- Fanes -->
  <circle cx="265" cy="240" r="38" fill="#111827" stroke="#334155" stroke-width="3"/>
  <circle cx="265" cy="240" r="14" fill="url(#fan)"/>
  <path d="M265 205 A35 35 0 0 1 298 232 L270 240 Z" fill="#475569"/>
  <circle cx="535" cy="240" r="38" fill="#111827" stroke="#334155" stroke-width="3"/>
  <circle cx="535" cy="240" r="14" fill="url(#fan)"/>
  <path d="M535 205 A35 35 0 0 1 568 232 L540 240 Z" fill="#475569"/>
  <!-- Conector de poder -->
  <rect x="240" y="296" width="130" height="24" rx="6" fill="#0f172a" stroke="#334155" stroke-width="2"/>
  <!-- Soporte -->
  <rect x="380" y="320" width="60" height="50" rx="6" fill="#334155"/>
  <text x="400" y="425" fill="#94a3b8" font-family="Arial" font-size="22" font-weight="bold" text-anchor="middle">RTX · GPU</text>
</svg>
